<svg width="524" height="145" viewBox="0 0 524 145" fill="none" xmlns="http://www.w3.org/2000/svg">
<path d="M518.095 3.5L523.095 5.88675V0.113249L518.095 2.5V3.5ZM22.5661 3L22.5661 2.4999L22.5558 2.5001L22.5661 3ZM1.0019 22.5588L0.50358 22.5178L0.501897 22.5383L0.501897 22.5588L1.0019 22.5588ZM1 121.5L0.5 121.5L0.5 121.517L0.50122 121.535L1 121.5ZM22.5642 141.574L22.5615 142.074H22.5642V141.574ZM187.471 141.574L182.471 138.687V144.46L187.471 141.574ZM518.595 2.5H22.5661V3.5H518.595V2.5ZM22.5558 2.5001C14.4369 2.66642 9.17337 3.94784 5.81053 7.12974C2.44695 10.3123 1.09812 15.29 0.50358 22.5178L1.50021 22.5998C2.09258 15.3985 3.42597 10.7627 6.49782 7.85612C9.57041 4.94886 14.4955 3.66543 22.5763 3.4999L22.5558 2.5001ZM0.501897 22.5588L0.5 121.5L1.5 121.5L1.5019 22.5588L0.501897 22.5588ZM0.50122 121.535C1.09551 130.028 2.84829 135.21 6.43141 138.24C10.0013 141.259 15.2677 142.034 22.5615 142.074L22.5669 141.074C15.2681 141.034 10.3449 140.24 7.07715 137.476C3.8226 134.724 2.08957 129.908 1.49878 121.465L0.50122 121.535ZM22.5642 142.074H182.971V141.074H22.5642V142.074Z" fill="#CE3131"/>
</svg>
