<svg width="855" height="171" viewBox="0 0 855 171" fill="none" xmlns="http://www.w3.org/2000/svg">
<path d="M5 3.5L0 5.88675V0.113249L5 2.5V3.5ZM824.996 3V2.5H825.006L825.016 2.50039L824.996 3ZM824.996 168L825.002 168.5H824.996V168ZM626.5 168L631.5 165.113V170.887L626.5 168ZM4.5 2.5H824.996V3.5H4.5V2.5ZM825.016 2.50039C830.446 2.71556 835.016 2.82416 838.786 3.3273C842.561 3.83101 845.611 4.73787 847.978 6.60025C850.355 8.47044 851.983 11.2544 853.017 15.3844C854.049 19.5053 854.5 25.0044 854.5 32.3559H853.5C853.5 25.0294 853.049 19.6279 852.047 15.6274C851.048 11.636 849.51 9.07757 847.36 7.3862C845.2 5.68702 842.36 4.8131 838.654 4.31851C834.943 3.82334 830.44 3.71611 824.976 3.49961L825.016 2.50039ZM854.5 32.3559V129.534H853.5V32.3559H854.5ZM854.5 129.534C854.5 145.994 852.163 155.728 847.234 161.355C842.283 167.009 834.829 168.396 825.002 168.5L824.991 167.5C834.791 167.396 841.838 165.999 846.482 160.697C851.149 155.368 853.5 145.973 853.5 129.534H854.5ZM824.996 168.5H631V167.5H824.996V168.5Z" fill="#CE3131"/>
</svg>
